<?xml version="1.0" encoding="utf-8"?>
<!-- Generator: Adobe Illustrator 25.2.0, SVG Export Plug-In . SVG Version: 6.00 Build 0)  -->
<svg version="1.1" id="レイヤー_1" xmlns="http://www.w3.org/2000/svg" xmlns:xlink="http://www.w3.org/1999/xlink" x="0px"
	 y="0px" viewBox="0 0 61.5 61.5" style="enable-background:new 0 0 61.5 61.5;" xml:space="preserve">
<style type="text/css">
	.st0{fill:#323232;}
	.st1{fill:#C8005A;}
</style>
<path class="st0" d="M7.6,11.5H7.1c-1.5-3.7,0-2.2-3.7-3.7V7.3c3.7-1.5,2.2,0,3.7-3.7h0.5c1.5,3.7,0,2.2,3.7,3.7v0.5
	C7.6,9.3,9.1,7.8,7.6,11.5z"/>
<path class="st0" d="M23,11.5h-0.5c-1.5-3.7,0-2.2-3.7-3.7V7.3c3.7-1.5,2.2,0,3.7-3.7H23c1.5,3.7,0,2.2,3.7,3.7v0.5
	C23,9.3,24.5,7.8,23,11.5z"/>
<path class="st0" d="M38.3,11.5h-0.5c-1.5-3.7,0-2.2-3.7-3.7V7.3c3.7-1.5,2.2,0,3.7-3.7h0.5c1.5,3.7,0,2.2,3.7,3.7v0.5
	C38.4,9.3,39.9,7.8,38.3,11.5z"/>
<path class="st0" d="M53.7,11.5h-0.5c-1.5-3.7,0-2.2-3.7-3.7V7.3c3.7-1.5,2.2,0,3.7-3.7h0.5c1.5,3.7,0,2.2,3.7,3.7v0.5
	C53.8,9.3,55.3,7.8,53.7,11.5z"/>
<path class="st1" d="M15.3,26.7h-0.5c-1.5-3.7,0-2.2-3.7-3.7v-0.5c3.7-1.5,2.2,0,3.7-3.7h0.5c1.5,3.7,0,2.2,3.7,3.7V23
	C15.3,24.6,16.8,23,15.3,26.7z"/>
<path class="st0" d="M30.6,26.7h-0.5c-1.5-3.7,0-2.2-3.7-3.7v-0.5c3.7-1.5,2.2,0,3.7-3.7h0.5c1.5,3.7,0,2.2,3.7,3.7V23
	C30.7,24.6,32.2,23,30.6,26.7z"/>
<path class="st0" d="M46,26.7h-0.5c-1.5-3.7,0-2.2-3.7-3.7v-0.5c3.7-1.5,2.2,0,3.7-3.7H46c1.5,3.7,0,2.2,3.7,3.7V23
	C46.1,24.6,47.6,23,46,26.7z"/>
<path class="st0" d="M61.4,26.7H61c-1.5-3.7,0-2.2-3.7-3.7v-0.5c3.7-1.5,2.2,0,3.7-3.7h0.5c1.5,3.7,0,2.2,3.7,3.7V23
	C61.5,24.6,63,23,61.4,26.7z"/>
<path class="st0" d="M7.6,42.5H7.1c-1.5-3.7,0-2.2-3.7-3.7v-0.5c3.7-1.5,2.2,0,3.7-3.7h0.5c1.5,3.7,0,2.2,3.7,3.7v0.5
	C7.6,40.3,9.1,38.8,7.6,42.5z"/>
<path class="st0" d="M23,42.5h-0.5c-1.5-3.7,0-2.2-3.7-3.7v-0.5c3.7-1.5,2.2,0,3.7-3.7H23c1.5,3.7,0,2.2,3.7,3.7v0.5
	C23,40.3,24.5,38.8,23,42.5z"/>
<path class="st0" d="M38.3,42.5h-0.5c-1.5-3.7,0-2.2-3.7-3.7v-0.5c3.7-1.5,2.2,0,3.7-3.7h0.5c1.5,3.7,0,2.2,3.7,3.7v0.5
	C38.4,40.3,39.9,38.8,38.3,42.5z"/>
<path class="st0" d="M53.7,42.5h-0.5c-1.5-3.7,0-2.2-3.7-3.7v-0.5c3.7-1.5,2.2,0,3.7-3.7h0.5c1.5,3.7,0,2.2,3.7,3.7v0.5
	C53.8,40.3,55.3,38.8,53.7,42.5z"/>
<path class="st0" d="M15.3,58h-0.5c-1.5-3.7,0-2.2-3.7-3.7v-0.5c3.7-1.5,2.2,0,3.7-3.7h0.5c1.5,3.7,0,2.2,3.7,3.7v0.5
	C15.3,55.9,16.8,54.3,15.3,58z"/>
<path class="st0" d="M-0.1,26.7h-0.5c-1.5-3.7,0-2.2-3.7-3.7v-0.5c3.7-1.5,2.2,0,3.7-3.7h0.5c1.5,3.7,0,2.2,3.7,3.7V23
	C-0.1,24.6,1.4,23-0.1,26.7z"/>
<path class="st0" d="M-0.1,58h-0.5c-1.5-3.7,0-2.2-3.7-3.7v-0.5c3.7-1.5,2.2,0,3.7-3.7h0.5c1.5,3.7,0,2.2,3.7,3.7v0.5
	C-0.1,55.9,1.4,54.3-0.1,58z"/>
<path class="st0" d="M30.6,58h-0.5c-1.5-3.7,0-2.2-3.7-3.7v-0.5c3.7-1.5,2.2,0,3.7-3.7h0.5c1.5,3.7,0,2.2,3.7,3.7v0.5
	C30.7,55.9,32.2,54.3,30.6,58z"/>
<path class="st1" d="M46,58h-0.5c-1.5-3.7,0-2.2-3.7-3.7v-0.5c3.7-1.5,2.2,0,3.7-3.7H46c1.5,3.7,0,2.2,3.7,3.7v0.5
	C46.1,55.9,47.6,54.3,46,58z"/>
<path class="st0" d="M61.4,58H61c-1.5-3.7,0-2.2-3.7-3.7v-0.5c3.7-1.5,2.2,0,3.7-3.7h0.5c1.5,3.7,0,2.2,3.7,3.7v0.5
	C61.5,55.9,63,54.3,61.4,58z"/>
</svg>
