<?xml version="1.0" encoding="utf-8"?>
<!-- Generator: Adobe Illustrator 25.2.0, SVG Export Plug-In . SVG Version: 6.00 Build 0)  -->
<svg version="1.1" id="レイヤー_1" xmlns="http://www.w3.org/2000/svg" xmlns:xlink="http://www.w3.org/1999/xlink" x="0px"
	 y="0px" viewBox="0 0 153.8 76.6" style="enable-background:new 0 0 153.8 76.6;" xml:space="preserve">
<style type="text/css">
	.st0{fill:#FFFFFF;}
	.st1{fill:#C8005A;}
</style>
<g>
	<g>
		<g>
			<path class="st0" d="M55.5,75.8c-16.8,0-31.8-23.6-39-26.7h-5.6v13c0,2.6,1,3.4,4.2,3.8c0.3,0.1,0.4,0.1,0.7,0.1l0.1,0.8
				l-0.9-0.1c-2.2-0.2-3.8-0.3-5-0.3H7.4c-1.2,0-2.7,0.1-5,0.3l-0.9,0.1l0.1-0.8c0.3,0,0.4,0,0.7-0.1c3.1-0.3,4.2-1.2,4.2-3.8V31
				c0-2.6-1-3.4-4.2-3.8c-0.3-0.1-0.4-0.1-0.7-0.1l-0.1-0.8l0.9,0.1c2.2,0.2,3.3,0.3,5,0.3c1.6,0,6.8-0.3,10-0.3c8.8,0,14,4.5,14,10
				c0,5.6-4,9.8-9.5,11.8c5,3.3,17.5,20.1,30.5,24.7c4.7,1.7,10,0.5,13-0.8C65,73.3,60.4,75.8,55.5,75.8z M15.6,27.9
				c-4,0-4.8,0.2-4.8,3.1v16.5h9.3c4-1.7,7.1-5,7.1-9.7C27.2,32.8,23.3,27.9,15.6,27.9z"/>
			<path class="st0" d="M58.9,66.5c0,0-4.5-0.1-7.3-0.2H44c-1.2,0-2.1,0.1-4.3,0.3l-0.9,0.1l0.1-0.9c0.3,0,0.4,0,0.7-0.1
				c3.1-0.3,3.5-1.2,3.5-3.8V42.6c0-2.6-0.4-3.4-3.5-3.8c-0.3-0.1-0.4-0.1-0.7-0.1l-0.1-0.9l0.9,0.1c2.2,0.2,3.1,0.3,4.3,0.3h14.8
				l1.1,5.2l-1-0.1c-0.8-2.9-1.2-3.1-3.8-3.2l-8-0.1v9.8h10.4v1.8H47.1V62c0,2.3,0.1,2.4,2.2,2.4h4.9c3.3,0,4-0.8,5.7-3.6l1.4-0.1
				C59.4,63.9,59.4,64.8,58.9,66.5z"/>
			<path class="st0" d="M79.2,66.7c-2.2-0.2-3.1-0.3-4.3-0.3h-2.1c-1.2,0-2.1,0.1-4.3,0.3l-0.9,0.1l0.1-0.9c0.3,0,0.4,0,0.7-0.1
				c3.1-0.3,3.5-1.2,3.5-3.8V42.6c0-2.6-0.4-3.4-3.5-3.8c-0.3-0.1-0.4-0.1-0.7-0.1l-0.1-0.9l0.9,0.1c2.2,0.2,3.1,0.3,4.3,0.3h2.1
				c1.2,0,2.1-0.1,4.3-0.3l0.9-0.1L80,38.8c-0.3,0-0.4,0-0.7,0.1c-3.1,0.3-3.5,1.2-3.5,3.8V62c0,2.6,0.4,3.4,3.5,3.8
				c0.3,0.1,0.4,0.1,0.7,0.1l0.1,0.9L79.2,66.7z M74.1,33.3h-0.6c-2.2-5.2,0-3-5.2-5.2v-0.6c5.2-2.2,3,0,5.2-5.2h0.6
				c2.2,5.2,0,3,5.2,5.2v0.6C74.1,30.2,76.3,28.1,74.1,33.3z"/>
			<path class="st0" d="M120.4,71.7c-12,0-21.6-16.8-23.3-18c-0.6-0.4-1.6-0.6-2.4-0.4V62c0,2.6,0.4,3.4,3.5,3.8
				c0.3,0.1,0.4,0.1,0.7,0.1l0.1,0.9l-0.9-0.1c-2.2-0.2-3.1-0.3-4.3-0.3h-2.1c-1.2,0-2.1,0.1-4.3,0.3l-0.9,0.1l0.1-0.9
				c0.3,0,0.4,0,0.7-0.1c3.1-0.3,3.5-1.2,3.5-3.8V42.6c0-2.6-0.4-3.4-3.5-3.8c-0.3-0.1-0.4-0.1-0.7-0.1l-0.1-0.9l0.9,0.1
				c2.2,0.2,3.1,0.3,4.3,0.3h2.1c1.2,0,2.1-0.1,4.3-0.3l0.9-0.1l-0.1,0.9c-0.3,0-0.4,0-0.7,0.1c-3.1,0.3-3.5,1.2-3.5,3.8V52
				c4.2-0.3,11.7-8.7,11.7-11.3c0-1.1-1-1.6-3.5-1.9c-0.3-0.1-0.7-0.1-0.7-0.1l-0.1-0.9l0.9,0.1c2.2,0.2,3.1,0.3,4.3,0.3h0.8
				c1.2,0,2.1-0.1,4.3-0.3l0.9-0.1l-0.1,0.9c0,0-0.4,0-0.7,0.1c-3.1,0.3-4.3,3.2-5,4.2c-2.7,3.9-5.1,6.3-7.7,8.2
				c2.9,1.4,8.8,14.9,18.5,18.2c2.7,1,6.4,1,9-0.1C126.9,70.6,124.1,71.7,120.4,71.7z"/>
			<path class="st0" d="M151.4,66.7c-2.2-0.2-3.8-0.3-5-0.3H144c-1.2,0-2.7,0.1-5,0.3l-0.9,0.1l0.1-0.8c0.3,0,0.4,0,0.7-0.1
				c3.1-0.3,4.1-1.2,4.1-3.8v-0.9c0-2.5-0.1-4.7-0.2-6.9H123c-0.1,2.2-0.2,4.4-0.2,6.9v0.9c0,2.6,1,3.4,4.2,3.8
				c0.3,0.1,0.4,0.1,0.7,0.1l0.1,0.8l-0.9-0.1c-2.2-0.2-3.8-0.3-5-0.3h-2.4c-1.2,0-2.7,0.1-5,0.3l-0.9,0.1l0.1-0.8
				c0.3,0,0.4,0,0.7-0.1c3.1-0.3,4.1-1.2,4.1-3.8v-1.1c0-15.3,2.9-29.3,14.4-36.1c11.5,6.8,14.4,20.8,14.4,36.1v1.1
				c0,2.6,1,3.4,4.2,3.8c0.3,0.1,0.4,0.1,0.7,0.1l0.1,0.8L151.4,66.7z M132.9,26.6c-5.2,2.9-8.6,11-9.8,25.3h19.5
				C141.5,37.6,138,29.6,132.9,26.6z"/>
		</g>
		<g>
			<path class="st0" d="M55.8,14.2c-0.7-0.1-1.3-0.1-1.7-0.1h-0.8c-0.4,0-0.9,0-1.7,0.1l-0.3,0l0-0.3c0.1,0,0.1,0,0.2,0
				c1-0.1,1.4-0.4,1.4-1.3V2.2l-4.7,1.4v9c0,0.9,0.3,1.1,1.4,1.3c0.1,0,0.1,0,0.2,0l0,0.3l-0.3,0c-0.7-0.1-1.3-0.1-1.7-0.1h-0.8
				c-0.4,0-0.9,0-1.7,0.1l-0.3,0l0-0.3c0.1,0,0.1,0,0.2,0c1-0.1,1.4-0.4,1.4-1.3v-9l-4.7-1.4v10.5c0,0.9,0.3,1.1,1.4,1.3
				c0.1,0,0.1,0,0.2,0l0,0.3l-0.3,0c-0.7-0.1-1.3-0.1-1.7-0.1H41c-0.4,0-0.9,0-1.7,0.1l-0.3,0l0-0.3c0.1,0,0.1,0,0.2,0
				c1-0.1,1.4-0.4,1.4-1.3V2.3c0-0.9-0.3-1.1-1.4-1.3c-0.1,0-0.1,0-0.2,0l0-0.3l0.3,0c0.7,0.1,1.4,0.1,3.1,0.6L47.5,3l5.2-1.6
				c1.7-0.5,2.3-0.6,3.1-0.6l0.3,0L56,1c-0.1,0-0.1,0-0.2,0c-1,0.1-1.4,0.4-1.4,1.3v10.3c0,0.9,0.3,1.1,1.4,1.3c0.1,0,0.1,0,0.2,0
				l0,0.3L55.8,14.2z"/>
			<path class="st0" d="M63.2,14.2c-0.7-0.1-1-0.1-1.4-0.1H61c-0.4,0-0.7,0-1.4,0.1l-0.3,0l0-0.3c0.1,0,0.1,0,0.2,0
				c1-0.1,1.2-0.4,1.2-1.3V6.2c0-0.9-0.1-1.1-1.2-1.3c-0.1,0-0.1,0-0.2,0l0-0.3l0.3,0c0.7,0.1,1,0.1,1.4,0.1h0.7
				c0.4,0,0.7,0,1.4-0.1l0.3,0l0,0.3c-0.1,0-0.1,0-0.2,0C62.2,5,62,5.3,62,6.2v6.5c0,0.9,0.1,1.1,1.2,1.3c0.1,0,0.1,0,0.2,0l0,0.3
				L63.2,14.2z M61.4,3.4h-0.1c-0.2-0.5-0.7-1-1.2-1.2V2c0.5-0.2,1-0.7,1.2-1.2h0.1c0.2,0.5,0.7,1,1.2,1.2v0.1
				C62.1,2.4,61.7,2.9,61.4,3.4z"/>
			<path class="st0" d="M69,14.4c-1.2,0-2-0.6-2.4-0.7l-0.3-2h0.3c0.3,1.4,1.1,2.2,2.4,2.2c1.2,0,2.2-0.6,2.2-1.8
				c0-1.1-0.8-1.7-2.5-2.6c-1.2-0.7-2.2-1.5-2.2-2.6c0-1.6,1.1-2.5,2.8-2.5c1.1,0,1.4,0.5,2.4,0.5l0.3,1.5h-0.3
				C71,5.2,70,4.9,69.1,4.9c-0.9,0-1.6,0.7-1.6,1.6c0,0.9,0.9,1.3,1.9,1.9c1.6,0.9,3,1.6,3,3.3C72.3,13.1,71,14.4,69,14.4z"/>
			<path class="st0" d="M82.2,6h-0.3c0.1-0.5,0-0.5-0.6-0.5H79v7.2c0,0.9,0.1,1.1,1.2,1.3c0.1,0,0.1,0,0.2,0l0,0.3l-0.3,0
				c-0.7-0.1-1-0.1-1.4-0.1H78c-0.4,0-0.7,0-1.4,0.1l-0.3,0l0-0.3c0.1,0,0.1,0,0.2,0c1-0.1,1.2-0.4,1.2-1.3V5.4h-2.5
				c-0.6,0-0.9,0.1-1.3,1h-0.3l0.8-2.2h0.4c-0.1,0.5,0,0.5,0.6,0.5h2.3V3.5c0-0.9-0.1-1.1-1.2-1.3c-0.1,0-0.1,0-0.2,0l0-0.3l0.3,0
				c0.7,0.1,1,0.1,1.4,0.1h0.7c0.4,0,0.7,0,1.4-0.1l0.3,0l0,0.3c-0.1,0-0.1,0-0.2,0c-1,0.1-1.2,0.4-1.2,1.3v1.2h2.5
				c0.5,0,0.8-0.1,1.2-1H83L82.2,6z"/>
			<path class="st0" d="M98,16.3c-4,0-8-5.3-8.8-5.9c-0.1-0.1-0.3-0.2-0.5-0.3h-1.3v2.5c0,0.9,0.1,1.1,1.2,1.3c0.1,0,0.1,0,0.2,0
				l0,0.3l-0.3,0c-0.7-0.1-1-0.1-1.4-0.1h-0.7c-0.4,0-0.7,0-1.4,0.1l-0.3,0l0-0.3c0.1,0,0.1,0,0.2,0c1-0.1,1.2-0.4,1.2-1.3V6.2
				c0-0.9-0.1-1.1-1.2-1.3c-0.1,0-0.1,0-0.2,0l0-0.3l0.3,0c0.7,0.1,1,0.1,1.4,0.1h0.1c0.3,0,0.8-0.1,2.4-0.1c2.2,0,3.4,1.1,3.4,2.4
				c0,1.4-1.1,2.3-2,2.7c1.3,0.9,4,4.8,7.1,5.8c0.9,0.3,2.1,0.3,3,0C100.2,15.9,99.2,16.3,98,16.3z M88.4,5.1c-0.9,0-1,0-1,0.7v3.9
				h1.9c1-0.3,1.7-1.1,1.7-2.3C90.9,6.2,90.1,5.1,88.4,5.1z"/>
			<path class="st0" d="M102.2,14.2c0,0-1.5,0-2.4-0.1h-2.5c-0.4,0-0.7,0-1.4,0.1l-0.3,0l0-0.3c0.1,0,0.1,0,0.2,0
				c1-0.1,1.2-0.4,1.2-1.3V6.2c0-0.9-0.1-1.1-1.2-1.3c-0.1,0-0.1,0-0.2,0l0-0.3l0.3,0c0.7,0.1,1,0.1,1.4,0.1h4.9l0.4,1.7l-0.3,0
				c-0.3-1-0.4-1-1.3-1.1l-2.7,0v3.3h3.5v0.6h-3.5v3.4c0,0.8,0,0.8,0.7,0.8h1.6c1.1,0,1.3-0.3,1.9-1.2l0.5,0
				C102.4,13.3,102.4,13.6,102.2,14.2z"/>
			<path class="st0" d="M107.9,14.4c-1.2,0-2-0.6-2.4-0.7l-0.3-2h0.3c0.3,1.4,1.1,2.2,2.4,2.2c1.2,0,2.2-0.6,2.2-1.8
				c0-1.1-0.8-1.7-2.5-2.6c-1.2-0.7-2.2-1.5-2.2-2.6c0-1.6,1.1-2.5,2.8-2.5c1.1,0,1.4,0.5,2.4,0.5l0.3,1.5h-0.3
				c-0.5-1.3-1.6-1.6-2.5-1.6c-0.9,0-1.6,0.7-1.6,1.6c0,0.9,0.9,1.3,1.9,1.9c1.6,0.9,3,1.6,3,3.3C111.3,13.1,109.9,14.4,107.9,14.4z
				"/>
			<path class="st0" d="M116.3,14.4c-1.2,0-2-0.6-2.4-0.7l-0.3-2h0.3c0.3,1.4,1.1,2.2,2.4,2.2c1.2,0,2.2-0.6,2.2-1.8
				c0-1.1-0.8-1.7-2.5-2.6c-1.2-0.7-2.2-1.5-2.2-2.6c0-1.6,1.1-2.5,2.8-2.5c1.1,0,1.4,0.5,2.4,0.5l0.3,1.5h-0.3
				c-0.5-1.3-1.6-1.6-2.5-1.6c-0.9,0-1.6,0.7-1.6,1.6c0,0.9,0.9,1.3,1.9,1.9c1.6,0.9,3,1.6,3,3.3C119.7,13.1,118.3,14.4,116.3,14.4z
				"/>
		</g>
	</g>
	<path class="st1" d="M74.1,33.3h-0.6c-2.2-5.2,0-3-5.2-5.2v-0.6c5.2-2.2,3,0,5.2-5.2h0.6c2.2,5.2,0,3,5.2,5.2v0.6
		C74.1,30.2,76.3,28.1,74.1,33.3z"/>
</g>
</svg>
